<svg width="51" height="51" viewBox="0 0 51 51" fill="none" xmlns="http://www.w3.org/2000/svg">
<path d="M25.5 46.75C37.236 46.75 46.75 37.236 46.75 25.5C46.75 13.7639 37.236 4.24992 25.5 4.24992C13.7639 4.24992 4.24992 13.7639 4.24992 25.5C4.24992 37.236 13.7639 46.75 25.5 46.75Z" stroke="#6366F1" stroke-width="4.19833" stroke-linecap="round" stroke-linejoin="round"/>
<path d="M25.5 38.2501C32.5417 38.2501 38.2501 32.5417 38.2501 25.5C38.2501 18.4584 32.5417 12.75 25.5 12.75C18.4584 12.75 12.75 18.4584 12.75 25.5C12.75 32.5417 18.4584 38.2501 25.5 38.2501Z" stroke="#6366F1" stroke-width="4.19833" stroke-linecap="round" stroke-linejoin="round"/>
<path d="M25.5001 29.7501C27.8473 29.7501 29.7501 27.8473 29.7501 25.5001C29.7501 23.1529 27.8473 21.2501 25.5001 21.2501C23.1529 21.2501 21.2501 23.1529 21.2501 25.5001C21.2501 27.8473 23.1529 29.7501 25.5001 29.7501Z" stroke="#6366F1" stroke-width="4.19833" stroke-linecap="round" stroke-linejoin="round"/>
</svg>
