<svg width="50" height="50" viewBox="0 0 50 50" fill="none" xmlns="http://www.w3.org/2000/svg">
<path d="M25 10.4167C25.0024 9.5834 24.8382 8.75805 24.517 7.98917C24.1959 7.22029 23.7242 6.52339 23.1297 5.93947C22.5352 5.35556 21.83 4.89641 21.0555 4.58903C20.281 4.28165 19.4529 4.13225 18.6198 4.14961C17.7867 4.16698 16.9655 4.35076 16.2044 4.69014C15.4434 5.02953 14.7579 5.51767 14.1883 6.12585C13.6187 6.73403 13.1765 7.44997 12.8876 8.23157C12.5987 9.01317 12.4691 9.84464 12.5062 10.6771C11.2817 10.992 10.1448 11.5814 9.18172 12.4006C8.21865 13.2199 7.45465 14.2477 6.94758 15.4059C6.4405 16.5642 6.20365 17.8227 6.25496 19.0861C6.30627 20.3494 6.6444 21.5846 7.24374 22.6979C6.18995 23.554 5.36129 24.6546 4.82986 25.904C4.29843 27.1534 4.08032 28.5137 4.1945 29.8666C4.30868 31.2195 4.75169 32.524 5.485 33.6667C6.21831 34.8093 7.2197 35.7555 8.40207 36.4229C8.25606 37.5526 8.34319 38.7002 8.65808 39.7948C8.97297 40.8895 9.50893 41.908 10.2329 42.7874C10.9568 43.6668 11.8533 44.3885 12.8671 44.9078C13.8809 45.4272 14.9903 45.7332 16.127 45.8069C17.2637 45.8807 18.4034 45.7206 19.4758 45.3367C20.5482 44.9527 21.5305 44.3529 22.362 43.5745C23.1935 42.796 23.8566 41.8553 24.3103 40.8105C24.764 39.7657 24.9988 38.639 25 37.5V10.4167Z" stroke="#6366F1" stroke-width="4.1075" stroke-linecap="round" stroke-linejoin="round"/>
<path d="M25 10.4167C24.9975 9.5834 25.1617 8.75805 25.4829 7.98917C25.8041 7.22029 26.2758 6.52339 26.8702 5.93947C27.4647 5.35556 28.1699 4.89641 28.9444 4.58903C29.7189 4.28165 30.5471 4.13225 31.3802 4.14961C32.2133 4.16698 33.0345 4.35076 33.7955 4.69014C34.5565 5.02953 35.242 5.51767 35.8116 6.12585C36.3812 6.73403 36.8235 7.44997 37.1124 8.23157C37.4012 9.01317 37.5309 9.84464 37.4937 10.6771C38.7183 10.992 39.8552 11.5814 40.8182 12.4006C41.7813 13.2199 42.5453 14.2477 43.0524 15.4059C43.5594 16.5642 43.7963 17.8227 43.745 19.0861C43.6937 20.3494 43.3555 21.5846 42.7562 22.6979C43.81 23.554 44.6386 24.6546 45.1701 25.904C45.7015 27.1534 45.9196 28.5137 45.8054 29.8666C45.6913 31.2195 45.2483 32.524 44.5149 33.6667C43.7816 34.8093 42.7802 35.7555 41.5979 36.4229C41.7439 37.5526 41.6567 38.7002 41.3419 39.7948C41.027 40.8895 40.491 41.908 39.7671 42.7874C39.0431 43.6668 38.1466 44.3885 37.1328 44.9078C36.1191 45.4272 35.0096 45.7332 33.8729 45.8069C32.7363 45.8807 31.5965 45.7206 30.5242 45.3367C29.4518 44.9527 28.4695 44.3529 27.638 43.5745C26.8064 42.796 26.1433 41.8553 25.6896 40.8105C25.2359 39.7657 25.0012 38.639 25 37.5V10.4167Z" stroke="#6366F1" stroke-width="4.1075" stroke-linecap="round" stroke-linejoin="round"/>
<path d="M31.25 27.0832C29.5009 26.4679 27.9736 25.3478 26.8611 23.8645C25.7486 22.3812 25.1009 20.6013 25 18.7499C24.899 20.6013 24.2514 22.3812 23.1389 23.8645C22.0264 25.3478 20.4991 26.4679 18.75 27.0832" stroke="#6366F1" stroke-width="4.1075" stroke-linecap="round" stroke-linejoin="round"/>
<path d="M36.6646 13.5416C37.1688 12.6678 37.454 11.6849 37.4958 10.677" stroke="#6366F1" stroke-width="4.1075" stroke-linecap="round" stroke-linejoin="round"/>
<path d="M12.5063 10.677C12.5475 11.6848 12.8319 12.6676 13.3354 13.5416" stroke="#6366F1" stroke-width="4.1075" stroke-linecap="round" stroke-linejoin="round"/>
<path d="M7.24376 22.7001C7.62488 22.3897 8.03272 22.1136 8.4625 21.8751" stroke="#6366F1" stroke-width="4.1075" stroke-linecap="round" stroke-linejoin="round"/>
<path d="M41.5375 21.8751C41.9672 22.1136 42.3751 22.3897 42.7562 22.7001" stroke="#6366F1" stroke-width="4.1075" stroke-linecap="round" stroke-linejoin="round"/>
<path d="M12.5 37.4999C11.0642 37.5006 9.65263 37.1303 8.40208 36.4249" stroke="#6366F1" stroke-width="4.1075" stroke-linecap="round" stroke-linejoin="round"/>
<path d="M41.5979 36.4249C40.3473 37.1303 38.9357 37.5006 37.5 37.4999" stroke="#6366F1" stroke-width="4.1075" stroke-linecap="round" stroke-linejoin="round"/>
</svg>
