<svg width="33" height="33" viewBox="0 0 33 33" fill="none" xmlns="http://www.w3.org/2000/svg">
<path d="M5.50007 19.2499C5.23987 19.2508 4.98476 19.1778 4.76438 19.0395C4.544 18.9012 4.36739 18.7031 4.25508 18.4684C4.14276 18.2337 4.09935 17.972 4.12988 17.7136C4.16042 17.4552 4.26365 17.2107 4.42757 17.0087L18.0401 2.98367C18.1422 2.86581 18.2813 2.78616 18.4347 2.7578C18.588 2.72945 18.7464 2.75406 18.8839 2.82761C19.0214 2.90117 19.1299 3.01928 19.1914 3.16257C19.2529 3.30586 19.2639 3.46581 19.2226 3.61617L16.5826 11.8937C16.5047 12.102 16.4786 12.3261 16.5064 12.5468C16.5342 12.7675 16.6151 12.9781 16.7422 13.1606C16.8693 13.3431 17.0387 13.4921 17.2361 13.5948C17.4334 13.6974 17.6526 13.7506 17.8751 13.7499H27.5C27.7602 13.749 28.0154 13.822 28.2357 13.9603C28.4561 14.0986 28.6327 14.2967 28.745 14.5314C28.8574 14.7661 28.9008 15.0279 28.8702 15.2863C28.8397 15.5447 28.7365 15.7891 28.5725 15.9912L14.9601 30.0161C14.858 30.134 14.7188 30.2136 14.5655 30.242C14.4121 30.2704 14.2537 30.2457 14.1162 30.1722C13.9787 30.0986 13.8703 29.9805 13.8087 29.8372C13.7472 29.6939 13.7362 29.534 13.7776 29.3836L16.4176 21.1061C16.4954 20.8978 16.5215 20.6737 16.4937 20.453C16.4659 20.2323 16.385 20.0217 16.2579 19.8392C16.1308 19.6567 15.9614 19.5077 15.7641 19.4051C15.5667 19.3024 15.3475 19.2492 15.1251 19.2499H5.50007Z" stroke="#6366F1" stroke-width="2.69083" stroke-linecap="round" stroke-linejoin="round"/>
</svg>
