<svg width="50" height="50" viewBox="0 0 50 50" fill="none" xmlns="http://www.w3.org/2000/svg">
<path d="M25 10.4166C25.0025 9.58329 24.8383 8.75795 24.5171 7.98906C24.1959 7.22018 23.7242 6.52328 23.1297 5.93936C22.5353 5.35545 21.8301 4.8963 21.0556 4.58892C20.281 4.28154 19.4529 4.13214 18.6198 4.1495C17.7867 4.16687 16.9655 4.35065 16.2045 4.69003C15.4434 5.02942 14.758 5.51756 14.1884 6.12574C13.6187 6.73392 13.1765 7.44986 12.8876 8.23146C12.5988 9.01306 12.4691 9.84454 12.5063 10.677C11.2817 10.9918 10.1448 11.5813 9.18174 12.4005C8.21868 13.2198 7.45468 14.2476 6.9476 15.4058C6.44053 16.5641 6.20368 17.8226 6.25499 19.086C6.3063 20.3493 6.64443 21.5845 7.24376 22.6978C6.18997 23.5539 5.36132 24.6545 4.82989 25.9039C4.29845 27.1533 4.08034 28.5136 4.19452 29.8665C4.3087 31.2195 4.75171 32.524 5.48502 33.6666C6.21833 34.8093 7.21973 35.7554 8.4021 36.4228C8.25609 37.5525 8.34322 38.7001 8.65811 39.7947C8.973 40.8894 9.50896 41.9079 10.2329 42.7873C10.9568 43.6667 11.8534 44.3884 12.8671 44.9077C13.8809 45.4271 14.9904 45.7331 16.1271 45.8069C17.2637 45.8806 18.4034 45.7206 19.4758 45.3366C20.5482 44.9526 21.5305 44.3529 22.362 43.5744C23.1935 42.7959 23.8566 41.8553 24.3104 40.8105C24.7641 39.7657 24.9988 38.639 25 37.4999V10.4166Z" stroke="#6366F1" stroke-width="4.165" stroke-linecap="round" stroke-linejoin="round"/>
<path d="M25 10.4166C24.9976 9.58329 25.1618 8.75795 25.483 7.98906C25.8041 7.22018 26.2758 6.52328 26.8703 5.93936C27.4648 5.35545 28.17 4.8963 28.9445 4.58892C29.719 4.28154 30.5472 4.13214 31.3802 4.1495C32.2133 4.16687 33.0346 4.35065 33.7956 4.69003C34.5566 5.02942 35.2421 5.51756 35.8117 6.12574C36.3813 6.73392 36.8236 7.44986 37.1124 8.23146C37.4013 9.01306 37.531 9.84454 37.4938 10.677C38.7184 10.9918 39.8552 11.5813 40.8183 12.4005C41.7814 13.2198 42.5454 14.2476 43.0524 15.4058C43.5595 16.5641 43.7964 17.8226 43.7451 19.086C43.6937 20.3493 43.3556 21.5845 42.7563 22.6978C43.8101 23.5539 44.6387 24.6545 45.1702 25.9039C45.7016 27.1533 45.9197 28.5136 45.8055 29.8665C45.6914 31.2195 45.2483 32.524 44.515 33.6666C43.7817 34.8093 42.7803 35.7554 41.5979 36.4228C41.744 37.5525 41.6568 38.7001 41.3419 39.7947C41.027 40.8894 40.4911 41.9079 39.7671 42.7873C39.0432 43.6667 38.1467 44.3884 37.1329 44.9077C36.1191 45.4271 35.0097 45.7331 33.873 45.8069C32.7363 45.8806 31.5966 45.7206 30.5242 45.3366C29.4518 44.9526 28.4695 44.3529 27.638 43.5744C26.8065 42.7959 26.1434 41.8553 25.6897 40.8105C25.236 39.7657 25.0012 38.639 25 37.4999V10.4166Z" stroke="#6366F1" stroke-width="4.165" stroke-linecap="round" stroke-linejoin="round"/>
<path d="M31.2501 27.0833C29.501 26.468 27.9736 25.3479 26.8612 23.8645C25.7487 22.3812 25.101 20.6013 25.0001 18.7499C24.8991 20.6013 24.2515 22.3812 23.139 23.8645C22.0265 25.3479 20.4991 26.468 18.7501 27.0833" stroke="#6366F1" stroke-width="4.165" stroke-linecap="round" stroke-linejoin="round"/>
<path d="M36.6646 13.5417C37.1688 12.6679 37.454 11.6851 37.4958 10.6771" stroke="#6366F1" stroke-width="4.165" stroke-linecap="round" stroke-linejoin="round"/>
<path d="M12.5062 10.6771C12.5474 11.6849 12.8319 12.6677 13.3354 13.5417" stroke="#6366F1" stroke-width="4.165" stroke-linecap="round" stroke-linejoin="round"/>
<path d="M7.24375 22.7C7.62487 22.3896 8.03271 22.1135 8.4625 21.875" stroke="#6366F1" stroke-width="4.165" stroke-linecap="round" stroke-linejoin="round"/>
<path d="M41.5375 21.875C41.9673 22.1135 42.3751 22.3896 42.7563 22.7" stroke="#6366F1" stroke-width="4.165" stroke-linecap="round" stroke-linejoin="round"/>
<path d="M12.5 37.5C11.0642 37.5007 9.6526 37.1304 8.40205 36.425" stroke="#6366F1" stroke-width="4.165" stroke-linecap="round" stroke-linejoin="round"/>
<path d="M41.5979 36.425C40.3474 37.1304 38.9358 37.5007 37.5 37.5" stroke="#6366F1" stroke-width="4.165" stroke-linecap="round" stroke-linejoin="round"/>
</svg>
