<svg width="28" height="28" viewBox="0 0 28 28" fill="none" xmlns="http://www.w3.org/2000/svg">
<path d="M14.5834 19.8333L14.0001 18.6667L13.4167 19.8333H14.5834Z" stroke="#EF4444" stroke-width="2.33333" stroke-linecap="round" stroke-linejoin="round"/>
<path d="M17.5001 25.6667C17.8095 25.6667 18.1062 25.5438 18.325 25.325C18.5438 25.1062 18.6668 24.8094 18.6668 24.5V23.3333C19.1062 23.3331 19.5367 23.2087 19.9086 22.9745C20.2805 22.7403 20.5787 22.4059 20.7688 22.0097C20.959 21.6135 21.0334 21.1717 20.9835 20.735C20.9336 20.2984 20.7614 19.8847 20.4868 19.5417C21.8237 18.2494 22.7442 16.5871 23.1302 14.7682C23.5161 12.9492 23.3499 11.0564 22.653 9.33254C21.956 7.60865 20.76 6.13223 19.2183 5.09262C17.6766 4.05301 15.8595 3.49759 14.0001 3.49759C12.1406 3.49759 10.3236 4.05301 8.78187 5.09262C7.24019 6.13223 6.04417 7.60865 5.3472 9.33254C4.65023 11.0564 4.48406 12.9492 4.87002 14.7682C5.25597 16.5871 6.17645 18.2494 7.51342 19.5417C7.23875 19.8847 7.06654 20.2984 7.01664 20.735C6.96673 21.1717 7.04115 21.6135 7.23132 22.0097C7.4215 22.4059 7.7197 22.7403 8.09159 22.9745C8.46348 23.2087 8.89394 23.3331 9.33342 23.3333V24.5C9.33342 24.8094 9.45633 25.1062 9.67513 25.325C9.89392 25.5438 10.1907 25.6667 10.5001 25.6667H17.5001Z" stroke="#EF4444" stroke-width="2.33333" stroke-linecap="round" stroke-linejoin="round"/>
<path d="M17.4999 15.1667C18.1443 15.1667 18.6666 14.6443 18.6666 14C18.6666 13.3557 18.1443 12.8333 17.4999 12.8333C16.8556 12.8333 16.3333 13.3557 16.3333 14C16.3333 14.6443 16.8556 15.1667 17.4999 15.1667Z" stroke="#EF4444" stroke-width="2.33333" stroke-linecap="round" stroke-linejoin="round"/>
<path d="M10.4999 15.1667C11.1443 15.1667 11.6666 14.6443 11.6666 14C11.6666 13.3557 11.1443 12.8333 10.4999 12.8333C9.85559 12.8333 9.33325 13.3557 9.33325 14C9.33325 14.6443 9.85559 15.1667 10.4999 15.1667Z" stroke="#EF4444" stroke-width="2.33333" stroke-linecap="round" stroke-linejoin="round"/>
</svg>
