<svg width="32" height="32" viewBox="0 0 32 32" fill="none" xmlns="http://www.w3.org/2000/svg">
<path d="M16.0001 6.66666C16.0016 6.13337 15.8965 5.60515 15.691 5.11306C15.4854 4.62098 15.1835 4.17496 14.8031 3.80126C14.4226 3.42755 13.9713 3.13369 13.4756 2.93697C12.9799 2.74025 12.4499 2.64463 11.9167 2.65575C11.3835 2.66686 10.858 2.78448 10.3709 3.00168C9.88385 3.21889 9.44515 3.5313 9.08059 3.92054C8.71604 4.30977 8.433 4.76798 8.24813 5.2682C8.06325 5.76842 7.98027 6.30057 8.00406 6.83333C7.22033 7.03485 6.49273 7.41206 5.87637 7.93641C5.26001 8.46076 4.77104 9.11849 4.44652 9.85979C4.12199 10.6011 3.9704 11.4065 4.00324 12.2151C4.03608 13.0236 4.25248 13.8141 4.63606 14.5267C3.96163 15.0746 3.43129 15.779 3.09118 16.5786C2.75106 17.3782 2.61147 18.2488 2.68454 19.1146C2.75762 19.9805 3.04115 20.8154 3.51047 21.5467C3.97978 22.278 4.62068 22.8835 5.37739 23.3107C5.28395 24.0336 5.33971 24.7681 5.54124 25.4687C5.74277 26.1693 6.08579 26.8211 6.5491 27.3839C7.01242 27.9468 7.58621 28.4086 8.23502 28.741C8.88383 29.0734 9.59389 29.2692 10.3214 29.3164C11.0488 29.3636 11.7782 29.2612 12.4646 29.0155C13.1509 28.7697 13.7796 28.3859 14.3117 27.8877C14.8439 27.3895 15.2683 26.7874 15.5587 26.1188C15.8491 25.4501 15.9993 24.729 16.0001 24V6.66666Z" stroke="#6366F1" stroke-width="2.66667" stroke-linecap="round" stroke-linejoin="round"/>
<path d="M16 6.66666C15.9984 6.13337 16.1035 5.60515 16.3091 5.11306C16.5147 4.62098 16.8165 4.17496 17.197 3.80126C17.5774 3.42755 18.0288 3.13369 18.5245 2.93697C19.0202 2.74025 19.5502 2.64463 20.0834 2.65575C20.6165 2.66686 21.1421 2.78448 21.6292 3.00168C22.1162 3.21889 22.5549 3.5313 22.9195 3.92054C23.284 4.30977 23.5671 4.76798 23.752 5.2682C23.9368 5.76842 24.0198 6.30057 23.996 6.83333C24.7797 7.03485 25.5073 7.41206 26.1237 7.93641C26.7401 8.46076 27.229 9.11849 27.5536 9.85979C27.8781 10.6011 28.0297 11.4065 27.9968 12.2151C27.964 13.0236 27.7476 13.8141 27.364 14.5267C28.0384 15.0746 28.5688 15.779 28.9089 16.5786C29.249 17.3782 29.3886 18.2488 29.3155 19.1146C29.2425 19.9805 28.9589 20.8154 28.4896 21.5467C28.0203 22.278 27.3794 22.8835 26.6227 23.3107C26.7161 24.0336 26.6604 24.7681 26.4588 25.4687C26.2573 26.1693 25.9143 26.8211 25.451 27.3839C24.9877 27.9468 24.4139 28.4086 23.7651 28.741C23.1162 29.0734 22.4062 29.2692 21.6787 29.3164C20.9512 29.3636 20.2218 29.2612 19.5355 29.0155C18.8492 28.7697 18.2205 28.3859 17.6883 27.8877C17.1562 27.3895 16.7318 26.7874 16.4414 26.1188C16.151 25.4501 16.0008 24.729 16 24V6.66666Z" stroke="#6366F1" stroke-width="2.66667" stroke-linecap="round" stroke-linejoin="round"/>
<path d="M20 17.3333C18.8806 16.9395 17.9031 16.2227 17.1911 15.2733C16.4791 14.324 16.0646 13.1849 16 12C15.9354 13.1849 15.5209 14.324 14.8089 15.2733C14.0969 16.2227 13.1194 16.9395 12 17.3333" stroke="#6366F1" stroke-width="2.66667" stroke-linecap="round" stroke-linejoin="round"/>
<path d="M23.4653 8.66666C23.788 8.10744 23.9706 7.47842 23.9973 6.83333" stroke="#6366F1" stroke-width="2.66667" stroke-linecap="round" stroke-linejoin="round"/>
<path d="M8.00403 6.83333C8.03039 7.47831 8.21247 8.10732 8.5347 8.66666" stroke="#6366F1" stroke-width="2.66667" stroke-linecap="round" stroke-linejoin="round"/>
<path d="M4.63599 14.528C4.87991 14.3293 5.14092 14.1527 5.41599 14" stroke="#6366F1" stroke-width="2.66667" stroke-linecap="round" stroke-linejoin="round"/>
<path d="M26.584 14C26.859 14.1527 27.1201 14.3293 27.364 14.528" stroke="#6366F1" stroke-width="2.66667" stroke-linecap="round" stroke-linejoin="round"/>
<path d="M7.99999 24C7.08109 24.0004 6.17768 23.7634 5.37732 23.312" stroke="#6366F1" stroke-width="2.66667" stroke-linecap="round" stroke-linejoin="round"/>
<path d="M26.6227 23.312C25.8223 23.7634 24.9189 24.0004 24 24" stroke="#6366F1" stroke-width="2.66667" stroke-linecap="round" stroke-linejoin="round"/>
</svg>
