<svg width="50" height="50" viewBox="0 0 50 50" fill="none" xmlns="http://www.w3.org/2000/svg">
<path d="M8.33332 29.1666C7.93908 29.168 7.55256 29.0574 7.21864 28.8478C6.88473 28.6382 6.61714 28.3382 6.44697 27.9826C6.27679 27.627 6.21102 27.2304 6.25728 26.8388C6.30354 26.4473 6.45995 26.077 6.70832 25.7708L27.3333 4.52078C27.488 4.3422 27.6989 4.22153 27.9312 4.17856C28.1636 4.13559 28.4036 4.17289 28.6119 4.28433C28.8203 4.39577 28.9846 4.57473 29.0778 4.79184C29.171 5.00895 29.1877 5.2513 29.125 5.47912L25.125 18.0208C25.0071 18.3365 24.9674 18.676 25.0096 19.0104C25.0517 19.3447 25.1743 19.6639 25.3669 19.9404C25.5594 20.217 25.8162 20.4427 26.1152 20.5982C26.4141 20.7537 26.7463 20.8344 27.0833 20.8333H41.6667C42.0609 20.8319 42.4474 20.9425 42.7814 21.1521C43.1153 21.3617 43.3829 21.6617 43.553 22.0173C43.7232 22.373 43.789 22.7696 43.7427 23.1611C43.6965 23.5526 43.5401 23.923 43.2917 24.2291L22.6667 45.4791C22.512 45.6577 22.3011 45.7784 22.0688 45.8214C21.8365 45.8643 21.5964 45.827 21.3881 45.7156C21.1797 45.6041 21.0154 45.4252 20.9222 45.2081C20.829 44.991 20.8123 44.7486 20.875 44.5208L24.875 31.9791C24.9929 31.6635 25.0326 31.3239 24.9904 30.9895C24.9483 30.6552 24.8257 30.336 24.6331 30.0595C24.4406 29.7829 24.1838 29.5572 23.8848 29.4017C23.5859 29.2462 23.2537 29.1655 22.9167 29.1666H8.33332Z" stroke="#6366F1" stroke-width="4.165" stroke-linecap="round" stroke-linejoin="round"/>
</svg>
