<svg width="49" height="49" viewBox="0 0 49 49" fill="none" xmlns="http://www.w3.org/2000/svg">
<path d="M8.16659 28.5832C7.78024 28.5845 7.40144 28.4762 7.0742 28.2708C6.74697 28.0654 6.48474 27.7713 6.31796 27.4228C6.15119 27.0743 6.08673 26.6856 6.13207 26.302C6.17741 25.9183 6.33068 25.5553 6.57409 25.2553L26.7866 4.43029C26.9382 4.25529 27.1448 4.13702 27.3725 4.09492C27.6002 4.05281 27.8354 4.08936 28.0396 4.19857C28.2438 4.30779 28.4048 4.48317 28.4961 4.69593C28.5875 4.9087 28.6038 5.1462 28.5424 5.36946L24.6224 17.6603C24.5068 17.9696 24.468 18.3024 24.5093 18.6301C24.5506 18.9578 24.6707 19.2705 24.8594 19.5415C25.0481 19.8126 25.2998 20.0338 25.5928 20.1862C25.8858 20.3386 26.2113 20.4176 26.5416 20.4165H40.8332C41.2196 20.4152 41.5984 20.5236 41.9256 20.729C42.2529 20.9344 42.5151 21.2284 42.6819 21.5769C42.8486 21.9254 42.9131 22.3141 42.8678 22.6978C42.8224 23.0815 42.6692 23.4444 42.4257 23.7445L22.2133 44.5694C22.0616 44.7445 21.855 44.8627 21.6273 44.9048C21.3996 44.9469 21.1644 44.9104 20.9602 44.8012C20.756 44.692 20.5951 44.5166 20.5037 44.3038C20.4123 44.091 20.396 43.8535 20.4574 43.6303L24.3774 31.3395C24.493 31.0301 24.5318 30.6973 24.4905 30.3696C24.4493 30.042 24.3291 29.7292 24.1404 29.4582C23.9517 29.1872 23.7 28.966 23.4071 28.8136C23.1141 28.6612 22.7885 28.5821 22.4583 28.5832H8.16659Z" stroke="#6366F1" stroke-width="4" stroke-linecap="round" stroke-linejoin="round"/>
</svg>
