<svg width="33" height="33" viewBox="0 0 33 33" fill="none" xmlns="http://www.w3.org/2000/svg">
<path d="M16.5002 6.87501C16.5018 6.32505 16.3934 5.78032 16.1814 5.27286C15.9695 4.7654 15.6581 4.30545 15.2658 3.92006C14.8735 3.53468 14.408 3.23164 13.8968 3.02877C13.3857 2.8259 12.8391 2.72729 12.2892 2.73875C11.7394 2.75021 11.1974 2.87151 10.6951 3.0955C10.1928 3.3195 9.74043 3.64167 9.36449 4.04307C8.98854 4.44446 8.69666 4.91699 8.50601 5.43284C8.31535 5.9487 8.22978 6.49747 8.25431 7.04688C7.44609 7.25469 6.69575 7.6437 6.06013 8.18443C5.42451 8.72517 4.92027 9.40345 4.5856 10.1679C4.25093 10.9324 4.09461 11.763 4.12848 12.5968C4.16234 13.4306 4.38551 14.2458 4.78107 14.9806C4.08557 15.5457 3.53865 16.2721 3.18791 17.0967C2.83717 17.9212 2.69321 18.8191 2.76857 19.712C2.84393 20.6049 3.13632 21.4659 3.6203 22.22C4.10429 22.9742 4.7652 23.5986 5.54557 24.0391C5.4492 24.7847 5.50671 25.5421 5.71454 26.2646C5.92236 26.9871 6.2761 27.6593 6.75389 28.2397C7.23169 28.8201 7.8234 29.2964 8.49249 29.6391C9.16158 29.9819 9.89383 30.1839 10.644 30.2326C11.3942 30.2812 12.1464 30.1756 12.8542 29.9222C13.562 29.6688 14.2103 29.2729 14.7591 28.7591C15.3079 28.2454 15.7455 27.6245 16.045 26.9349C16.3445 26.2454 16.4994 25.5018 16.5002 24.75V6.87501Z" stroke="#6366F1" stroke-width="2.69083" stroke-linecap="round" stroke-linejoin="round"/>
<path d="M16.5 6.87501C16.4984 6.32505 16.6068 5.78032 16.8188 5.27286C17.0307 4.7654 17.3421 4.30545 17.7344 3.92006C18.1267 3.53468 18.5922 3.23164 19.1034 3.02877C19.6145 2.8259 20.1611 2.72729 20.711 2.73875C21.2608 2.75021 21.8028 2.87151 22.3051 3.0955C22.8073 3.3195 23.2598 3.64167 23.6357 4.04307C24.0117 4.44446 24.3035 4.91699 24.4942 5.43284C24.6848 5.9487 24.7704 6.49747 24.7459 7.04688C25.5541 7.25469 26.3044 7.6437 26.9401 8.18443C27.5757 8.72517 28.0799 9.40345 28.4146 10.1679C28.7493 10.9324 28.9056 11.763 28.8717 12.5968C28.8379 13.4306 28.6147 14.2458 28.2191 14.9806C28.9146 15.5457 29.4615 16.2721 29.8123 17.0967C30.163 17.9212 30.307 18.8191 30.2316 19.712C30.1563 20.6049 29.8639 21.4659 29.3799 22.22C28.8959 22.9742 28.235 23.5986 27.4546 24.0391C27.551 24.7847 27.4935 25.5421 27.2857 26.2646C27.0778 26.9871 26.7241 27.6593 26.2463 28.2397C25.7685 28.8201 25.1768 29.2964 24.5077 29.6391C23.8386 29.9819 23.1064 30.1839 22.3562 30.2326C21.606 30.2812 20.8538 30.1756 20.146 29.9222C19.4382 29.6688 18.7899 29.2729 18.2411 28.7591C17.6923 28.2454 17.2547 27.6245 16.9552 26.9349C16.6557 26.2454 16.5008 25.5018 16.5 24.75V6.87501Z" stroke="#6366F1" stroke-width="2.69083" stroke-linecap="round" stroke-linejoin="round"/>
<path d="M20.6251 17.8749C19.4707 17.4688 18.4627 16.7295 17.7284 15.7505C16.9942 14.7715 16.5667 13.5968 16.5001 12.3749C16.4335 13.5968 16.006 14.7715 15.2718 15.7505C14.5376 16.7295 13.5295 17.4688 12.3751 17.8749" stroke="#6366F1" stroke-width="2.69083" stroke-linecap="round" stroke-linejoin="round"/>
<path d="M24.1988 8.93749C24.5316 8.3608 24.7198 7.71212 24.7475 7.04687" stroke="#6366F1" stroke-width="2.69083" stroke-linecap="round" stroke-linejoin="round"/>
<path d="M8.25424 7.04687C8.28143 7.712 8.46919 8.36067 8.80149 8.93749" stroke="#6366F1" stroke-width="2.69083" stroke-linecap="round" stroke-linejoin="round"/>
<path d="M4.78108 14.9821C5.03262 14.7772 5.3018 14.595 5.58546 14.4376" stroke="#6366F1" stroke-width="2.69083" stroke-linecap="round" stroke-linejoin="round"/>
<path d="M27.4145 14.4376C27.6982 14.595 27.9673 14.7772 28.2189 14.9821" stroke="#6366F1" stroke-width="2.69083" stroke-linecap="round" stroke-linejoin="round"/>
<path d="M8.2502 24.7499C7.30259 24.7503 6.37094 24.5059 5.54558 24.0404" stroke="#6366F1" stroke-width="2.69083" stroke-linecap="round" stroke-linejoin="round"/>
<path d="M27.4544 24.0404C26.629 24.5059 25.6974 24.7503 24.7498 24.7499" stroke="#6366F1" stroke-width="2.69083" stroke-linecap="round" stroke-linejoin="round"/>
</svg>
