<svg width="28" height="28" viewBox="0 0 28 28" fill="none" xmlns="http://www.w3.org/2000/svg">
<path d="M23.3169 20.885L23.2183 6.98361C23.2092 5.70402 22.1646 4.67406 20.885 4.68314L6.98357 4.7817C5.70398 4.79077 4.67402 5.83544 4.68309 7.11503L4.78165 21.0164C4.79072 22.296 5.83539 23.326 7.11498 23.3169L21.0164 23.2184C22.296 23.2093 23.3259 22.1646 23.3169 20.885Z" stroke="#9CA3AF" stroke-width="2.26256" stroke-linecap="round" stroke-linejoin="round"/>
<path d="M17.4918 16.2922L17.4589 11.6584C17.4544 11.0186 16.932 10.5036 16.2922 10.5082L11.6584 10.541C11.0186 10.5456 10.5037 11.0679 10.5082 11.7077L10.541 16.3415C10.5456 16.9813 11.0679 17.4963 11.7077 17.4917L16.3415 17.4589C16.9813 17.4544 17.4963 16.932 17.4918 16.2922Z" stroke="#9CA3AF" stroke-width="2.26256" stroke-linecap="round" stroke-linejoin="round"/>
<path d="M25.6091 17.3932L23.2922 17.4096" stroke="#9CA3AF" stroke-width="2.26256" stroke-linecap="round" stroke-linejoin="round"/>
<path d="M4.75702 17.541L2.44012 17.5575" stroke="#9CA3AF" stroke-width="2.26256" stroke-linecap="round" stroke-linejoin="round"/>
<path d="M10.4425 2.44011L10.4589 4.75701" stroke="#9CA3AF" stroke-width="2.26256" stroke-linecap="round" stroke-linejoin="round"/>
<path d="M17.3932 2.39086L17.4096 4.70776" stroke="#9CA3AF" stroke-width="2.26256" stroke-linecap="round" stroke-linejoin="round"/>
<path d="M10.5903 23.2922L10.6068 25.6091" stroke="#9CA3AF" stroke-width="2.26256" stroke-linecap="round" stroke-linejoin="round"/>
<path d="M17.541 23.2429L17.5575 25.5598" stroke="#9CA3AF" stroke-width="2.26256" stroke-linecap="round" stroke-linejoin="round"/>
<path d="M25.5599 10.4425L23.243 10.4589" stroke="#9CA3AF" stroke-width="2.26256" stroke-linecap="round" stroke-linejoin="round"/>
<path d="M4.70774 10.5903L2.39084 10.6068" stroke="#9CA3AF" stroke-width="2.26256" stroke-linecap="round" stroke-linejoin="round"/>
</svg>
