<svg width="50" height="50" viewBox="0 0 50 50" fill="none" xmlns="http://www.w3.org/2000/svg">
<path d="M25 45.8332C36.5059 45.8332 45.8333 36.5058 45.8333 24.9999C45.8333 13.494 36.5059 4.16658 25 4.16658C13.4941 4.16658 4.16668 13.494 4.16668 24.9999C4.16668 36.5058 13.4941 45.8332 25 45.8332Z" stroke="#6366F1" stroke-width="4.1075" stroke-linecap="round" stroke-linejoin="round"/>
<path d="M25 37.5C31.9035 37.5 37.5 31.9035 37.5 25C37.5 18.0964 31.9035 12.5 25 12.5C18.0964 12.5 12.5 18.0964 12.5 25C12.5 31.9035 18.0964 37.5 25 37.5Z" stroke="#6366F1" stroke-width="4.1075" stroke-linecap="round" stroke-linejoin="round"/>
<path d="M25 29.1667C27.3012 29.1667 29.1666 27.3013 29.1666 25.0001C29.1666 22.6989 27.3012 20.8334 25 20.8334C22.6988 20.8334 20.8333 22.6989 20.8333 25.0001C20.8333 27.3013 22.6988 29.1667 25 29.1667Z" stroke="#6366F1" stroke-width="4.1075" stroke-linecap="round" stroke-linejoin="round"/>
</svg>
