<svg width="49" height="49" viewBox="0 0 49 49" fill="none" xmlns="http://www.w3.org/2000/svg">
<path d="M24.5 44.9167C35.7758 44.9167 44.9167 35.7758 44.9167 24.5C44.9167 13.2242 35.7758 4.08337 24.5 4.08337C13.2242 4.08337 4.08337 13.2242 4.08337 24.5C4.08337 35.7758 13.2242 44.9167 24.5 44.9167Z" stroke="#6366F1" stroke-width="4" stroke-linecap="round" stroke-linejoin="round"/>
<path d="M24.4999 36.7499C31.2654 36.7499 36.7499 31.2654 36.7499 24.4999C36.7499 17.7344 31.2654 12.2499 24.4999 12.2499C17.7344 12.2499 12.2499 17.7344 12.2499 24.4999C12.2499 31.2654 17.7344 36.7499 24.4999 36.7499Z" stroke="#6366F1" stroke-width="4" stroke-linecap="round" stroke-linejoin="round"/>
<path d="M24.5 28.5833C26.7551 28.5833 28.5833 26.7551 28.5833 24.5C28.5833 22.2448 26.7551 20.4166 24.5 20.4166C22.2448 20.4166 20.4166 22.2448 20.4166 24.5C20.4166 26.7551 22.2448 28.5833 24.5 28.5833Z" stroke="#6366F1" stroke-width="4" stroke-linecap="round" stroke-linejoin="round"/>
</svg>
