<svg width="51" height="51" viewBox="0 0 51 51" fill="none" xmlns="http://www.w3.org/2000/svg">
<path d="M8.49996 29.7501C8.09784 29.7514 7.70358 29.6387 7.36298 29.4249C7.02239 29.2111 6.74945 28.9051 6.57587 28.5423C6.4023 28.1796 6.3352 27.7751 6.38239 27.3757C6.42958 26.9764 6.58911 26.5986 6.84246 26.2863L27.88 4.61127C28.0378 4.42911 28.2529 4.30602 28.4898 4.2622C28.7268 4.21837 28.9717 4.25642 29.1842 4.37009C29.3967 4.48376 29.5643 4.6663 29.6593 4.88775C29.7544 5.10919 29.7714 5.35639 29.7075 5.58877L25.6275 18.3813C25.5072 18.7033 25.4668 19.0497 25.5098 19.3907C25.5527 19.7317 25.6778 20.0572 25.8742 20.3393C26.0706 20.6214 26.3325 20.8516 26.6375 21.0103C26.9424 21.1689 27.2813 21.2512 27.625 21.2501H42.5C42.9022 21.2487 43.2964 21.3614 43.637 21.5752C43.9776 21.789 44.2505 22.0951 44.4241 22.4578C44.5977 22.8205 44.6648 23.2251 44.6176 23.6244C44.5704 24.0238 44.4109 24.4015 44.1575 24.7138L23.12 46.3889C22.9622 46.571 22.7471 46.6941 22.5102 46.7379C22.2732 46.7818 22.0283 46.7437 21.8158 46.63C21.6033 46.5164 21.4357 46.3338 21.3407 46.1124C21.2456 45.8909 21.2286 45.6437 21.2925 45.4114L25.3725 32.6188C25.4928 32.2968 25.5332 31.9505 25.4902 31.6094C25.4473 31.2684 25.3222 30.9429 25.1258 30.6608C24.9294 30.3787 24.6675 30.1485 24.3625 29.9899C24.0576 29.8312 23.7187 29.749 23.375 29.7501H8.49996Z" stroke="#6366F1" stroke-width="4.19833" stroke-linecap="round" stroke-linejoin="round"/>
</svg>
