<svg width="50" height="50" viewBox="0 0 50 50" fill="none" xmlns="http://www.w3.org/2000/svg">
<path d="M8.33332 29.1667C7.93909 29.168 7.55256 29.0575 7.21865 28.8479C6.88473 28.6383 6.61715 28.3383 6.44697 27.9826C6.2768 27.627 6.21102 27.2304 6.25728 26.8389C6.30355 26.4474 6.45995 26.077 6.70833 25.7709L27.3333 4.52087C27.488 4.34229 27.6988 4.22162 27.9312 4.17865C28.1635 4.13568 28.4036 4.17298 28.6119 4.28442C28.8203 4.39586 28.9845 4.57482 29.0778 4.79193C29.171 5.00904 29.1876 5.25139 29.125 5.47921L25.125 18.0209C25.007 18.3365 24.9674 18.6761 25.0095 19.0105C25.0517 19.3448 25.1743 19.6639 25.3668 19.9405C25.5594 20.217 25.8162 20.4428 26.1151 20.5983C26.4141 20.7538 26.7463 20.8345 27.0833 20.8334H41.6666C42.0609 20.832 42.4474 20.9426 42.7813 21.1522C43.1152 21.3617 43.3828 21.6618 43.553 22.0174C43.7232 22.373 43.7889 22.7696 43.7427 23.1611C43.6964 23.5527 43.54 23.923 43.2916 24.2292L22.6666 45.4792C22.5119 45.6577 22.3011 45.7784 22.0688 45.8214C21.8364 45.8643 21.5964 45.8271 21.388 45.7156C21.1797 45.6042 21.0154 45.4252 20.9222 45.2081C20.829 44.991 20.8123 44.7486 20.875 44.5208L24.875 31.9792C24.9929 31.6635 25.0325 31.3239 24.9904 30.9896C24.9483 30.6552 24.8257 30.3361 24.6331 30.0595C24.4406 29.783 24.1838 29.5573 23.8848 29.4018C23.5859 29.2463 23.2536 29.1656 22.9166 29.1667H8.33332Z" stroke="#6366F1" stroke-width="4.1075" stroke-linecap="round" stroke-linejoin="round"/>
</svg>
