<svg width="33" height="33" viewBox="0 0 33 33" fill="none" xmlns="http://www.w3.org/2000/svg">
<path d="M16.5001 30.2501C24.094 30.2501 30.2501 24.094 30.2501 16.5001C30.2501 8.90616 24.094 2.75008 16.5001 2.75008C8.90616 2.75008 2.75008 8.90616 2.75008 16.5001C2.75008 24.094 8.90616 30.2501 16.5001 30.2501Z" stroke="#6366F1" stroke-width="2.69083" stroke-linecap="round" stroke-linejoin="round"/>
<path d="M16.4997 24.75C21.0561 24.75 24.7497 21.0563 24.7497 16.5C24.7497 11.9436 21.0561 8.25 16.4997 8.25C11.9434 8.25 8.24975 11.9436 8.24975 16.5C8.24975 21.0563 11.9434 24.75 16.4997 24.75Z" stroke="#6366F1" stroke-width="2.69083" stroke-linecap="round" stroke-linejoin="round"/>
<path d="M16.4999 19.2499C18.0187 19.2499 19.2499 18.0187 19.2499 16.4999C19.2499 14.9811 18.0187 13.7499 16.4999 13.7499C14.9811 13.7499 13.7499 14.9811 13.7499 16.4999C13.7499 18.0187 14.9811 19.2499 16.4999 19.2499Z" stroke="#6366F1" stroke-width="2.69083" stroke-linecap="round" stroke-linejoin="round"/>
</svg>
