<svg width="32" height="32" viewBox="0 0 32 32" fill="none" xmlns="http://www.w3.org/2000/svg">
<path d="M24.304 24.3375L26.3291 10.3627C26.5155 9.07634 25.6238 7.88244 24.3375 7.69603L10.3627 5.67089C9.07631 5.48448 7.8824 6.37616 7.69599 7.66251L5.67085 21.6373C5.48445 22.9237 6.37612 24.1176 7.66247 24.304L21.6373 26.3291C22.9236 26.5155 24.1176 25.6239 24.304 24.3375Z" stroke="#9CA3AF" stroke-width="2.28608" stroke-linecap="round" stroke-linejoin="round"/>
<path d="M19.1562 18.8354L19.8313 14.1771C19.9245 13.5339 19.4786 12.937 18.8355 12.8438L14.1772 12.1687C13.534 12.0755 12.9371 12.5214 12.8439 13.1645L12.1688 17.8228C12.0756 18.466 12.5214 19.0629 13.1646 19.1562L17.8229 19.8312C18.4661 19.9244 19.063 19.4786 19.1562 18.8354Z" stroke="#9CA3AF" stroke-width="2.28608" stroke-linecap="round" stroke-linejoin="round"/>
<path d="M27.1394 21.1813L24.8103 20.8438" stroke="#9CA3AF" stroke-width="2.28608" stroke-linecap="round" stroke-linejoin="round"/>
<path d="M6.17724 18.1436L3.8481 17.8061" stroke="#9CA3AF" stroke-width="2.28608" stroke-linecap="round" stroke-linejoin="round"/>
<path d="M14.1939 3.84804L13.8564 6.17717" stroke="#9CA3AF" stroke-width="2.28608" stroke-linecap="round" stroke-linejoin="round"/>
<path d="M21.1813 4.86061L20.8438 7.18975" stroke="#9CA3AF" stroke-width="2.28608" stroke-linecap="round" stroke-linejoin="round"/>
<path d="M11.1562 24.8102L10.8187 27.1394" stroke="#9CA3AF" stroke-width="2.28608" stroke-linecap="round" stroke-linejoin="round"/>
<path d="M18.1437 25.8228L17.8061 28.152" stroke="#9CA3AF" stroke-width="2.28608" stroke-linecap="round" stroke-linejoin="round"/>
<path d="M28.152 14.1939L25.8229 13.8564" stroke="#9CA3AF" stroke-width="2.28608" stroke-linecap="round" stroke-linejoin="round"/>
<path d="M7.18975 11.1562L4.86061 10.8186" stroke="#9CA3AF" stroke-width="2.28608" stroke-linecap="round" stroke-linejoin="round"/>
</svg>
