<svg width="49" height="49" viewBox="0 0 49 49" fill="none" xmlns="http://www.w3.org/2000/svg">
<path d="M24.4999 10.2082C24.5023 9.39163 24.3414 8.58279 24.0267 7.82928C23.7119 7.07578 23.2496 6.39282 22.6671 5.82058C22.0845 5.24834 21.3934 4.79838 20.6344 4.49714C19.8753 4.19591 19.0638 4.0495 18.2473 4.06652C17.4309 4.08354 16.6261 4.26364 15.8803 4.59624C15.1345 4.92883 14.4627 5.40721 13.9045 6.00323C13.3463 6.59924 12.9129 7.30087 12.6298 8.06684C12.3467 8.8328 12.2196 9.64765 12.2561 10.4634C11.056 10.772 9.94184 11.3496 8.99804 12.1525C8.05424 12.9554 7.30552 13.9626 6.80858 15.0977C6.31165 16.2328 6.07954 17.4661 6.12982 18.7042C6.18011 19.9423 6.51147 21.1528 7.09882 22.2439C6.0661 23.0828 5.25402 24.1614 4.73322 25.3858C4.21242 26.6102 3.99867 27.9434 4.11056 29.2692C4.22246 30.595 4.65661 31.8735 5.37526 32.9933C6.0939 34.1131 7.07527 35.0403 8.23398 35.6943C8.0909 36.8014 8.17629 37.9261 8.48488 38.9988C8.79347 40.0716 9.31871 41.0697 10.0282 41.9315C10.7376 42.7934 11.6162 43.5006 12.6097 44.0096C13.6032 44.5185 14.6905 44.8184 15.8044 44.8907C16.9184 44.963 18.0353 44.8061 19.0862 44.4298C20.1372 44.0535 21.0998 43.4658 21.9147 42.7029C22.7296 41.94 23.3794 41.0181 23.8241 39.9942C24.2687 38.9703 24.4987 37.8662 24.4999 36.7499V10.2082Z" stroke="#6366F1" stroke-width="4" stroke-linecap="round" stroke-linejoin="round"/>
<path d="M24.5 10.2082C24.4976 9.39163 24.6585 8.58279 24.9733 7.82928C25.2881 7.07578 25.7503 6.39282 26.3329 5.82058C26.9155 5.24834 27.6066 4.79838 28.3656 4.49714C29.1246 4.19591 29.9362 4.0495 30.7526 4.06652C31.5691 4.08354 32.3739 4.26364 33.1197 4.59624C33.8655 4.92883 34.5372 5.40721 35.0955 6.00323C35.6537 6.59924 36.0871 7.30087 36.3702 8.06684C36.6533 8.8328 36.7803 9.64765 36.7439 10.4634C37.944 10.772 39.0581 11.3496 40.0019 12.1525C40.9457 12.9554 41.6944 13.9626 42.1914 15.0977C42.6883 16.2328 42.9204 17.4661 42.8701 18.7042C42.8199 19.9423 42.4885 21.1528 41.9011 22.2439C42.9339 23.0828 43.7459 24.1614 44.2667 25.3858C44.7875 26.6102 45.0013 27.9434 44.8894 29.2692C44.7775 30.595 44.3434 31.8735 43.6247 32.9933C42.9061 34.1131 41.9247 35.0403 40.766 35.6943C40.9091 36.8014 40.8237 37.9261 40.5151 38.9988C40.2065 40.0716 39.6812 41.0697 38.9718 41.9315C38.2623 42.7934 37.3837 43.5006 36.3902 44.0096C35.3967 44.5185 34.3095 44.8184 33.1955 44.8907C32.0816 44.963 30.9647 44.8061 29.9137 44.4298C28.8628 44.0535 27.9002 43.4658 27.0853 42.7029C26.2704 41.94 25.6205 41.0181 25.1759 39.9942C24.7312 38.9703 24.5012 37.8662 24.5 36.7499V10.2082Z" stroke="#6366F1" stroke-width="4" stroke-linecap="round" stroke-linejoin="round"/>
<path d="M30.6251 26.5417C28.911 25.9387 27.4142 24.841 26.3239 23.3874C25.2337 21.9337 24.599 20.1894 24.5001 18.3751C24.4011 20.1894 23.7664 21.9337 22.6762 23.3874C21.586 24.841 20.0892 25.9387 18.3751 26.5417" stroke="#6366F1" stroke-width="4" stroke-linecap="round" stroke-linejoin="round"/>
<path d="M35.9313 13.2707C36.4254 12.4144 36.7049 11.4512 36.7459 10.4634" stroke="#6366F1" stroke-width="4" stroke-linecap="round" stroke-linejoin="round"/>
<path d="M12.2561 10.4634C12.2965 11.451 12.5753 12.4142 13.0687 13.2707" stroke="#6366F1" stroke-width="4" stroke-linecap="round" stroke-linejoin="round"/>
<path d="M7.09876 22.2457C7.47211 21.9416 7.87162 21.6712 8.29264 21.4375" stroke="#6366F1" stroke-width="4" stroke-linecap="round" stroke-linejoin="round"/>
<path d="M40.7067 21.4375C41.1277 21.6712 41.5272 21.9416 41.9006 22.2457" stroke="#6366F1" stroke-width="4" stroke-linecap="round" stroke-linejoin="round"/>
<path d="M12.25 36.7501C10.8429 36.7507 9.45956 36.3878 8.23401 35.6966" stroke="#6366F1" stroke-width="4" stroke-linecap="round" stroke-linejoin="round"/>
<path d="M40.7658 35.6966C39.5403 36.3878 38.1569 36.7507 36.7499 36.7501" stroke="#6366F1" stroke-width="4" stroke-linecap="round" stroke-linejoin="round"/>
</svg>
