<svg width="50" height="50" viewBox="0 0 50 50" fill="none" xmlns="http://www.w3.org/2000/svg">
<path d="M24.9999 45.8333C36.5058 45.8333 45.8333 36.5058 45.8333 24.9999C45.8333 13.494 36.5058 4.16656 24.9999 4.16656C13.494 4.16656 4.16656 13.494 4.16656 24.9999C4.16656 36.5058 13.494 45.8333 24.9999 45.8333Z" stroke="#6366F1" stroke-width="4.165" stroke-linecap="round" stroke-linejoin="round"/>
<path d="M24.9999 37.5C31.9035 37.5 37.5 31.9035 37.5 24.9999C37.5 18.0964 31.9035 12.4999 24.9999 12.4999C18.0964 12.4999 12.4999 18.0964 12.4999 24.9999C12.4999 31.9035 18.0964 37.5 24.9999 37.5Z" stroke="#6366F1" stroke-width="4.165" stroke-linecap="round" stroke-linejoin="round"/>
<path d="M25 29.1667C27.3012 29.1667 29.1667 27.3012 29.1667 25C29.1667 22.6988 27.3012 20.8333 25 20.8333C22.6988 20.8333 20.8333 22.6988 20.8333 25C20.8333 27.3012 22.6988 29.1667 25 29.1667Z" stroke="#6366F1" stroke-width="4.165" stroke-linecap="round" stroke-linejoin="round"/>
</svg>
