<svg width="37" height="37" viewBox="0 0 37 37" fill="none" xmlns="http://www.w3.org/2000/svg">
<path d="M24.2417 28.6917L29.8917 15.8417C30.4118 14.6589 29.8745 13.2785 28.6917 12.7584L15.8418 7.10835C14.6589 6.58828 13.2785 7.12553 12.7584 8.30834L7.10839 21.1583C6.58832 22.3411 7.12557 23.7216 8.30838 24.2416L21.1583 29.8917C22.3411 30.4117 23.7216 29.8745 24.2417 28.6917Z" stroke="#9CA3AF" stroke-width="2.30858" stroke-linecap="round" stroke-linejoin="round"/>
<path d="M20.7707 22.0542L22.6541 17.7709C22.9141 17.1795 22.6455 16.4892 22.0541 16.2292L17.7708 14.3458C17.1793 14.0858 16.4891 14.3544 16.2291 14.9458L14.3457 19.2292C14.0857 19.8206 14.3543 20.5108 14.9457 20.7708L19.2291 22.6542C19.8205 22.9142 20.5107 22.6456 20.7707 22.0542Z" stroke="#9CA3AF" stroke-width="2.30858" stroke-linecap="round" stroke-linejoin="round"/>
<path d="M27.7958 26.4208L25.6542 25.4792" stroke="#9CA3AF" stroke-width="2.30858" stroke-linecap="round" stroke-linejoin="round"/>
<path d="M8.52073 17.9458L6.37907 17.0041" stroke="#9CA3AF" stroke-width="2.30858" stroke-linecap="round" stroke-linejoin="round"/>
<path d="M19.9958 6.37917L19.0542 8.52082" stroke="#9CA3AF" stroke-width="2.30858" stroke-linecap="round" stroke-linejoin="round"/>
<path d="M26.4207 9.20421L25.479 11.3459" stroke="#9CA3AF" stroke-width="2.30858" stroke-linecap="round" stroke-linejoin="round"/>
<path d="M11.5209 25.6541L10.5792 27.7958" stroke="#9CA3AF" stroke-width="2.30858" stroke-linecap="round" stroke-linejoin="round"/>
<path d="M17.9458 28.4791L17.0041 30.6208" stroke="#9CA3AF" stroke-width="2.30858" stroke-linecap="round" stroke-linejoin="round"/>
<path d="M30.6208 19.9958L28.4792 19.0542" stroke="#9CA3AF" stroke-width="2.30858" stroke-linecap="round" stroke-linejoin="round"/>
<path d="M11.3457 11.5208L9.20406 10.5792" stroke="#9CA3AF" stroke-width="2.30858" stroke-linecap="round" stroke-linejoin="round"/>
</svg>
