<svg width="51" height="51" viewBox="0 0 51 51" fill="none" xmlns="http://www.w3.org/2000/svg">
<path d="M25.5 10.6249C25.5025 9.775 25.335 8.93314 25.0074 8.14888C24.6798 7.36461 24.1986 6.65378 23.5923 6.05818C22.9859 5.46258 22.2666 4.99425 21.4766 4.68072C20.6866 4.3672 19.8419 4.21481 18.9921 4.23252C18.1424 4.25023 17.3047 4.43769 16.5285 4.78386C15.7522 5.13003 15.053 5.62794 14.472 6.24828C13.891 6.86863 13.4399 7.59889 13.1453 8.39613C12.8506 9.19336 12.7184 10.0415 12.7563 10.8906C11.5072 11.2117 10.3476 11.8129 9.36528 12.6486C8.38295 13.4843 7.60367 14.5325 7.08645 15.714C6.56923 16.8954 6.32765 18.1791 6.37998 19.4677C6.43232 20.7564 6.77721 22.0162 7.38853 23.1518C6.31367 24.0251 5.46844 25.1477 4.92637 26.4221C4.38431 27.6965 4.16184 29.084 4.2783 30.464C4.39476 31.8439 4.84664 33.1745 5.59462 34.34C6.34259 35.5055 7.36402 36.4706 8.57004 37.1514C8.42111 38.3036 8.50998 39.4742 8.83117 40.5907C9.15236 41.7073 9.69904 42.7462 10.4375 43.6432C11.1759 44.5402 12.0903 45.2763 13.1244 45.806C14.1584 46.3357 15.2901 46.6479 16.4495 46.7231C17.6089 46.7983 18.7714 46.6351 19.8653 46.2434C20.9591 45.8518 21.961 45.24 22.8092 44.446C23.6573 43.652 24.3337 42.6925 24.7965 41.6268C25.2593 40.5611 25.4987 39.4118 25.5 38.25V10.6249Z" stroke="#6366F1" stroke-width="4.19833" stroke-linecap="round" stroke-linejoin="round"/>
<path d="M25.5 10.6249C25.4975 9.775 25.665 8.93314 25.9926 8.14888C26.3202 7.36461 26.8014 6.65378 27.4077 6.05818C28.0141 5.46258 28.7334 4.99425 29.5234 4.68072C30.3134 4.3672 31.1581 4.21481 32.0079 4.23252C32.8576 4.25023 33.6953 4.43769 34.4715 4.78386C35.2478 5.13003 35.9469 5.62794 36.5279 6.24828C37.109 6.86863 37.5601 7.59889 37.8547 8.39613C38.1493 9.19336 38.2816 10.0415 38.2437 10.8906C39.4928 11.2117 40.6524 11.8129 41.6347 12.6486C42.617 13.4843 43.3963 14.5325 43.9135 15.714C44.4307 16.8954 44.6723 18.1791 44.62 19.4677C44.5677 20.7564 44.2228 22.0162 43.6114 23.1518C44.6863 24.0251 45.5315 25.1477 46.0736 26.4221C46.6157 27.6965 46.8381 29.084 46.7217 30.464C46.6052 31.8439 46.1533 33.1745 45.4054 34.34C44.6574 35.5055 43.636 36.4706 42.4299 37.1514C42.5789 38.3036 42.49 39.4742 42.1688 40.5907C41.8476 41.7073 41.3009 42.7462 40.5625 43.6432C39.8241 44.5402 38.9096 45.2763 37.8756 45.806C36.8415 46.3357 35.7099 46.6479 34.5505 46.7231C33.3911 46.7983 32.2286 46.6351 31.1347 46.2434C30.0409 45.8518 29.0389 45.24 28.1908 44.446C27.3426 43.652 26.6663 42.6925 26.2035 41.6268C25.7407 40.5611 25.5013 39.4118 25.5 38.25V10.6249Z" stroke="#6366F1" stroke-width="4.19833" stroke-linecap="round" stroke-linejoin="round"/>
<path d="M31.8752 27.6251C30.0911 26.9975 28.5332 25.855 27.3985 24.342C26.2637 22.829 25.6031 21.0135 25.5001 19.1251C25.3972 21.0135 24.7366 22.829 23.6018 24.342C22.4671 25.855 20.9092 26.9975 19.1251 27.6251" stroke="#6366F1" stroke-width="4.19833" stroke-linecap="round" stroke-linejoin="round"/>
<path d="M37.3981 13.8126C37.9124 12.9213 38.2033 11.9188 38.246 10.8907" stroke="#6366F1" stroke-width="4.19833" stroke-linecap="round" stroke-linejoin="round"/>
<path d="M12.7564 10.8907C12.7984 11.9187 13.0886 12.9212 13.6022 13.8126" stroke="#6366F1" stroke-width="4.19833" stroke-linecap="round" stroke-linejoin="round"/>
<path d="M7.38867 23.1541C7.77742 22.8374 8.19341 22.5559 8.6318 22.3126" stroke="#6366F1" stroke-width="4.19833" stroke-linecap="round" stroke-linejoin="round"/>
<path d="M42.3684 22.3126C42.8068 22.5559 43.2228 22.8374 43.6116 23.1541" stroke="#6366F1" stroke-width="4.19833" stroke-linecap="round" stroke-linejoin="round"/>
<path d="M12.7499 38.2502C11.2854 38.2508 9.8456 37.8731 8.57002 37.1537" stroke="#6366F1" stroke-width="4.19833" stroke-linecap="round" stroke-linejoin="round"/>
<path d="M42.4299 37.1537C41.1543 37.8731 39.7145 38.2508 38.25 38.2502" stroke="#6366F1" stroke-width="4.19833" stroke-linecap="round" stroke-linejoin="round"/>
</svg>
